<?xml version="1.0" encoding="UTF-8" standalone="no" ?>
<!DOCTYPE svg PUBLIC "-//W3C//DTD SVG 1.1//EN" "http://www.w3.org/Graphics/SVG/1.1/DTD/svg11.dtd">
<svg xmlns="http://www.w3.org/2000/svg" xmlns:xlink="http://www.w3.org/1999/xlink" version="1.1" width="500" height="500" viewBox="0 0 500 500" xml:space="preserve">
<desc>Created with Fabric.js 3.6.3</desc>
<defs>
</defs>
<rect x="0" y="0" width="100%" height="100%" fill="#ffffff"></rect>
<g transform="matrix(2.2314824460881337 0 0 2.2314824460881337 250 250)"  >
<circle style="stroke: none; stroke-width: 1; stroke-dasharray: none; stroke-linecap: butt; stroke-dashoffset: 0; stroke-linejoin: miter; stroke-miterlimit: 4; fill: rgb(0,0,0); fill-rule: evenodd; opacity: 1;"  cx="0" cy="0" r="47.0059" />
</g>
<g transform="matrix(1.6249887825867784 0 0 1.6249887825867784 250.53709344723416 250.81249439129337)"  >
<polygon style="stroke: none; stroke-width: 1; stroke-dasharray: none; stroke-linecap: butt; stroke-dashoffset: 0; stroke-linejoin: miter; stroke-miterlimit: 4; fill: rgb(255,255,255); fill-rule: nonzero; opacity: 1;"  points="33.586,36.414 0,2.828000000000003 -33.586,36.414 -36.414,33.586 -2.8290000000000006,0 -36.414,-33.585 -33.586,-36.414 0,-2.8290000000000006 33.586,-36.414 36.414,-33.586 2.828000000000003,0 36.414,33.586 " />
</g>
<g transform="matrix(0.5 0 0 0.5 180.0020575059902 250)" style=""  ><path fill="#ffffff" opacity="1" d="M15.01-64.36L15.01-57.86L-5.84-57.86L-5.84-9.15L11.68-9.15L11.68-2.81L-5.84-2.81L-5.84 52.40L-12.51 52.40L-12.51-64.36L15.01-64.36Z"/></g><g transform="matrix(0.5 0 0 0.5 319.99794249400986 250)" style=""  ><path fill="#ffffff" opacity="1" d="M15.01-64.36L15.01-57.86L-5.84-57.86L-5.84-9.15L11.68-9.15L11.68-2.81L-5.84-2.81L-5.84 52.40L-12.51 52.40L-12.51-64.36L15.01-64.36Z"/></g><g transform="matrix(1 0 0 1 0.5 2.5)"  >
<g style=""   >
</g>
</g>
<g transform="matrix(0.9371425692059528 0 0 0.9371425692059528 249.72459905594079 293.70948913721674)"  >
<g style=""   >
		<g transform="matrix(1 0 0 1 -11.417 0.5010000000000021)"  >
<path style="stroke: none; stroke-width: 1; stroke-dasharray: none; stroke-linecap: butt; stroke-dashoffset: 0; stroke-linejoin: miter; stroke-miterlimit: 4; fill: rgb(255,255,255); fill-rule: nonzero; opacity: 1;"  transform=" translate(-4.583, -16.501)" d="M 6.119 20.787 c 0 0.395 -0.317 0.713 -0.714 0.713 H 3.762 c -0.397 0 -0.715 -0.318 -0.715 -0.713 v -8.572 c 0 -0.393 0.317 -0.713 0.715 -0.713 h 1.643 c 0.396 0 0.714 0.32 0.714 0.713 V 20.787 z" stroke-linecap="round" />
</g>
		<g transform="matrix(1 0 0 1 -7.233499999999999 0.4999999999999991)"  >
<path style="stroke: none; stroke-width: 1; stroke-dasharray: none; stroke-linecap: butt; stroke-dashoffset: 0; stroke-linejoin: miter; stroke-miterlimit: 4; fill: rgb(255,255,255); fill-rule: nonzero; opacity: 1;"  transform=" translate(-8.7665, -16.5)" d="M 10.917 22.5 c 0 0.553 -0.449 0.998 -0.999 0.998 H 7.617 c -0.552 0 -1.002 -0.445 -1.002 -0.998 v -12 c 0 -0.551 0.45 -0.998 1.002 -0.998 h 2.302 c 0.55 0 0.999 0.447 0.999 0.998 V 22.5 z" stroke-linecap="round" />
</g>
		<g transform="matrix(1 0 0 1 -14.441 0.5)"  >
<path style="stroke: none; stroke-width: 1; stroke-dasharray: none; stroke-linecap: butt; stroke-dashoffset: 0; stroke-linejoin: miter; stroke-miterlimit: 4; fill: rgb(255,255,255); fill-rule: nonzero; opacity: 1;"  transform=" translate(-1.5590000000000002, -16.5)" d="M 2.619 17.35 c 0 0.443 -0.357 0.801 -0.802 0.801 H 1.3 c -0.442 0 -0.801 -0.357 -0.801 -0.801 V 15.65 c 0 -0.441 0.358 -0.801 0.801 -0.801 h 0.517 c 0.444 0 0.802 0.359 0.802 0.801 V 17.35 z" stroke-linecap="round" />
</g>
		<g transform="matrix(1 0 0 1 12.4175 0.5010000000000021)"  >
<path style="stroke: none; stroke-width: 1; stroke-dasharray: none; stroke-linecap: butt; stroke-dashoffset: 0; stroke-linejoin: miter; stroke-miterlimit: 4; fill: rgb(255,255,255); fill-rule: nonzero; opacity: 1;"  transform=" translate(-28.4175, -16.501)" d="M 26.881 20.787 c 0 0.395 0.318 0.713 0.713 0.713 h 1.645 c 0.395 0 0.715 -0.318 0.715 -0.713 v -8.572 c 0 -0.393 -0.32 -0.713 -0.715 -0.713 h -1.645 c -0.395 0 -0.713 0.32 -0.713 0.713 V 20.787 z" stroke-linecap="round" />
</g>
		<g transform="matrix(1 0 0 1 8.232500000000002 0.4999999999999991)"  >
<path style="stroke: none; stroke-width: 1; stroke-dasharray: none; stroke-linecap: butt; stroke-dashoffset: 0; stroke-linejoin: miter; stroke-miterlimit: 4; fill: rgb(255,255,255); fill-rule: nonzero; opacity: 1;"  transform=" translate(-24.2325, -16.5)" d="M 22.082 22.5 c 0 0.553 0.449 0.998 1 0.998 h 2.303 c 0.551 0 0.998 -0.445 0.998 -0.998 v -12 c 0 -0.551 -0.447 -0.998 -0.998 -0.998 h -2.303 c -0.551 0 -1 0.447 -1 0.998 V 22.5 z" stroke-linecap="round" />
</g>
		<g transform="matrix(1 0 0 1 15.440999999999999 0.5)"  >
<path style="stroke: none; stroke-width: 1; stroke-dasharray: none; stroke-linecap: butt; stroke-dashoffset: 0; stroke-linejoin: miter; stroke-miterlimit: 4; fill: rgb(255,255,255); fill-rule: nonzero; opacity: 1;"  transform=" translate(-31.441, -16.5)" d="M 30.381 17.35 c 0 0.443 0.357 0.801 0.801 0.801 h 0.518 c 0.443 0 0.801 -0.357 0.801 -0.801 V 15.65 c 0 -0.441 -0.357 -0.801 -0.801 -0.801 h -0.518 c -0.443 0 -0.801 0.359 -0.801 0.801 V 17.35 z" stroke-linecap="round" />
</g>
		<g transform="matrix(1 0 0 1 0.4999999999999991 0.5010000000000019)"  >
<rect style="stroke: none; stroke-width: 1; stroke-dasharray: none; stroke-linecap: butt; stroke-dashoffset: 0; stroke-linejoin: miter; stroke-miterlimit: 4; fill: rgb(255,255,255); fill-rule: nonzero; opacity: 1;"  x="-4.611" y="-0.825" rx="0" ry="0" width="9.222" height="1.65" />
</g>
</g>
</g>
<g transform="matrix(0.9371425692059528 0 0 0.9371425692059528 249.72459905594079 206.29051086278326)"  >
<g style=""   >
		<g transform="matrix(1 0 0 1 -11.417 0.5010000000000021)"  >
<path style="stroke: none; stroke-width: 1; stroke-dasharray: none; stroke-linecap: butt; stroke-dashoffset: 0; stroke-linejoin: miter; stroke-miterlimit: 4; fill: rgb(255,255,255); fill-rule: nonzero; opacity: 1;"  transform=" translate(-4.583, -16.501)" d="M 6.119 20.787 c 0 0.395 -0.317 0.713 -0.714 0.713 H 3.762 c -0.397 0 -0.715 -0.318 -0.715 -0.713 v -8.572 c 0 -0.393 0.317 -0.713 0.715 -0.713 h 1.643 c 0.396 0 0.714 0.32 0.714 0.713 V 20.787 z" stroke-linecap="round" />
</g>
		<g transform="matrix(1 0 0 1 -7.233499999999999 0.4999999999999991)"  >
<path style="stroke: none; stroke-width: 1; stroke-dasharray: none; stroke-linecap: butt; stroke-dashoffset: 0; stroke-linejoin: miter; stroke-miterlimit: 4; fill: rgb(255,255,255); fill-rule: nonzero; opacity: 1;"  transform=" translate(-8.7665, -16.5)" d="M 10.917 22.5 c 0 0.553 -0.449 0.998 -0.999 0.998 H 7.617 c -0.552 0 -1.002 -0.445 -1.002 -0.998 v -12 c 0 -0.551 0.45 -0.998 1.002 -0.998 h 2.302 c 0.55 0 0.999 0.447 0.999 0.998 V 22.5 z" stroke-linecap="round" />
</g>
		<g transform="matrix(1 0 0 1 -14.441 0.5)"  >
<path style="stroke: none; stroke-width: 1; stroke-dasharray: none; stroke-linecap: butt; stroke-dashoffset: 0; stroke-linejoin: miter; stroke-miterlimit: 4; fill: rgb(255,255,255); fill-rule: nonzero; opacity: 1;"  transform=" translate(-1.5590000000000002, -16.5)" d="M 2.619 17.35 c 0 0.443 -0.357 0.801 -0.802 0.801 H 1.3 c -0.442 0 -0.801 -0.357 -0.801 -0.801 V 15.65 c 0 -0.441 0.358 -0.801 0.801 -0.801 h 0.517 c 0.444 0 0.802 0.359 0.802 0.801 V 17.35 z" stroke-linecap="round" />
</g>
		<g transform="matrix(1 0 0 1 12.4175 0.5010000000000021)"  >
<path style="stroke: none; stroke-width: 1; stroke-dasharray: none; stroke-linecap: butt; stroke-dashoffset: 0; stroke-linejoin: miter; stroke-miterlimit: 4; fill: rgb(255,255,255); fill-rule: nonzero; opacity: 1;"  transform=" translate(-28.4175, -16.501)" d="M 26.881 20.787 c 0 0.395 0.318 0.713 0.713 0.713 h 1.645 c 0.395 0 0.715 -0.318 0.715 -0.713 v -8.572 c 0 -0.393 -0.32 -0.713 -0.715 -0.713 h -1.645 c -0.395 0 -0.713 0.32 -0.713 0.713 V 20.787 z" stroke-linecap="round" />
</g>
		<g transform="matrix(1 0 0 1 8.232500000000002 0.4999999999999991)"  >
<path style="stroke: none; stroke-width: 1; stroke-dasharray: none; stroke-linecap: butt; stroke-dashoffset: 0; stroke-linejoin: miter; stroke-miterlimit: 4; fill: rgb(255,255,255); fill-rule: nonzero; opacity: 1;"  transform=" translate(-24.2325, -16.5)" d="M 22.082 22.5 c 0 0.553 0.449 0.998 1 0.998 h 2.303 c 0.551 0 0.998 -0.445 0.998 -0.998 v -12 c 0 -0.551 -0.447 -0.998 -0.998 -0.998 h -2.303 c -0.551 0 -1 0.447 -1 0.998 V 22.5 z" stroke-linecap="round" />
</g>
		<g transform="matrix(1 0 0 1 15.440999999999999 0.5)"  >
<path style="stroke: none; stroke-width: 1; stroke-dasharray: none; stroke-linecap: butt; stroke-dashoffset: 0; stroke-linejoin: miter; stroke-miterlimit: 4; fill: rgb(255,255,255); fill-rule: nonzero; opacity: 1;"  transform=" translate(-31.441, -16.5)" d="M 30.381 17.35 c 0 0.443 0.357 0.801 0.801 0.801 h 0.518 c 0.443 0 0.801 -0.357 0.801 -0.801 V 15.65 c 0 -0.441 -0.357 -0.801 -0.801 -0.801 h -0.518 c -0.443 0 -0.801 0.359 -0.801 0.801 V 17.35 z" stroke-linecap="round" />
</g>
		<g transform="matrix(1 0 0 1 0.4999999999999991 0.5010000000000019)"  >
<rect style="stroke: none; stroke-width: 1; stroke-dasharray: none; stroke-linecap: butt; stroke-dashoffset: 0; stroke-linejoin: miter; stroke-miterlimit: 4; fill: rgb(255,255,255); fill-rule: nonzero; opacity: 1;"  x="-4.611" y="-0.825" rx="0" ry="0" width="9.222" height="1.65" />
</g>
</g>
</g>
</svg>