<?xml version="1.0" encoding="UTF-8" standalone="no" ?>
<!DOCTYPE svg PUBLIC "-//W3C//DTD SVG 1.1//EN" "http://www.w3.org/Graphics/SVG/1.1/DTD/svg11.dtd">
<svg xmlns="http://www.w3.org/2000/svg" xmlns:xlink="http://www.w3.org/1999/xlink" version="1.1" width="500" height="500" viewBox="0 0 500 500" xml:space="preserve">
<desc>Created with Fabric.js 3.6.3</desc>
<defs>
</defs>
<rect x="0" y="0" width="100%" height="100%" fill="#ffffff"></rect>
<g transform="matrix(2.2314824460881337 0 0 2.2314824460881337 250.48196457964377 195.83578586311074)"  >
<circle style="stroke: none; stroke-width: 1; stroke-dasharray: none; stroke-linecap: butt; stroke-dashoffset: 0; stroke-linejoin: miter; stroke-miterlimit: 4; fill: rgb(0,0,0); fill-rule: evenodd; opacity: 1;"  cx="0" cy="0" r="47.0059" />
</g>
<g transform="matrix(1.6249887825867784 0 0 1.6249887825867784 250.53709344723416 196.1815700072924)"  >
<polygon style="stroke: none; stroke-width: 1; stroke-dasharray: none; stroke-linecap: butt; stroke-dashoffset: 0; stroke-linejoin: miter; stroke-miterlimit: 4; fill: rgb(255,255,255); fill-rule: nonzero; opacity: 1;"  points="33.586,36.414 0,2.828000000000003 -33.586,36.414 -36.414,33.586 -2.8290000000000006,0 -36.414,-33.585 -33.586,-36.414 0,-2.8290000000000006 33.586,-36.414 36.414,-33.586 2.828000000000003,0 36.414,33.586 " />
</g>
<g transform="matrix(0.5 0 0 0.5 249.145509948953 351.7152130951141)" style=""  ><path fill="#000000" opacity="1" d="M-137.02-57.88L-137.02-52.03L-155.77-52.03L-155.77-8.23L-140.02-8.23L-140.02-2.53L-155.77-2.53L-155.77 47.12L-161.77 47.12L-161.77-57.88L-137.02-57.88Z"/><path fill="#000000" opacity="1" d="M-91.87 41.27L-91.87 47.12L-115.87 47.12L-115.87-57.88L-109.87-57.88L-109.87 41.27L-91.87 41.27Z"/><path fill="#000000" opacity="1" d="M-47.92-57.88L-47.92-52.03L-66.67-52.03L-66.67-8.23L-50.92-8.23L-50.92-2.53L-66.67-2.53L-66.67 41.27L-47.92 41.27L-47.92 47.12L-72.67 47.12L-72.67-57.88L-47.92-57.88Z"/><path fill="#000000" opacity="1" d="M-29.93-57.88L-23.78-57.88L-14.93-27.88L-11.63-13.63L-8.33-27.88L0.67-57.88L6.82-57.88L-8.48-6.28L7.42 47.12L1.27 47.12L-7.73 17.12L-11.63 1.07L-15.53 17.12L-24.38 47.12L-30.53 47.12L-14.63-6.28L-29.93-57.88Z"/><path fill="#000000" opacity="1" d=""/><path fill="#000000" opacity="1" d="M86.33-57.88L86.33-52.03L67.58-52.03L67.58-8.23L83.33-8.23L83.33-2.53L67.58-2.53L67.58 47.12L61.58 47.12L61.58-57.88L86.33-57.88Z"/><path fill="#000000" opacity="1" d="M113.62-57.88L113.62 47.12L107.62 47.12L107.62-57.88L113.62-57.88Z"/><path fill="#000000" opacity="1" d="M132.97-52.03L132.97-57.88L165.97-57.88L165.97-52.03L152.47-52.03L152.47 47.12L146.47 47.12L146.47-52.03L132.97-52.03Z"/></g><g transform="matrix(0.5 0 0 0.5 180.0020575059902 195.9199457756016)" style=""  ><path fill="#ffffff" opacity="1" d="M15.01-64.36L15.01-57.86L-5.84-57.86L-5.84-9.15L11.68-9.15L11.68-2.81L-5.84-2.81L-5.84 52.40L-12.51 52.40L-12.51-64.36L15.01-64.36Z"/></g><g transform="matrix(0.5 0 0 0.5 319.99794249400986 195.36907561599904)" style=""  ><path fill="#ffffff" opacity="1" d="M15.01-64.36L15.01-57.86L-5.84-57.86L-5.84-9.15L11.68-9.15L11.68-2.81L-5.84-2.81L-5.84 52.40L-12.51 52.40L-12.51-64.36L15.01-64.36Z"/></g><g transform="matrix(1 0 0 1 0.5 2.5)"  >
<g style=""   >
</g>
</g>
<g transform="matrix(0.5 0 0 0.5 249.85943848317538 404.4227960725075)" style=""  ><path fill="#000000" opacity="1" d="M-107.36-15.20L-107.36-13.67L-112.29-13.67L-112.29-2.16L-108.15-2.16L-108.15-0.66L-112.29-0.66L-112.29 12.38L-113.87 12.38L-113.87-15.20L-107.36-15.20Z"/><path fill="#000000" opacity="1" d="M-95.47-15.20L-95.47 12.38L-97.04 12.38L-97.04-15.20L-95.47-15.20Z"/><path fill="#000000" opacity="1" d="M-85.66-13.67L-85.66-15.20L-76.99-15.20L-76.99-13.67L-80.53-13.67L-80.53 12.38L-82.11 12.38L-82.11-13.67L-85.66-13.67Z"/><path fill="#000000" opacity="1" d="M-60.91 0.99L-60.91-15.20L-59.34-15.20L-59.34 12.38L-60.91 12.38L-65.76-8.98L-65.64-3.82L-65.64 12.38L-67.22 12.38L-67.22-15.20L-65.64-15.20L-60.79 6.15L-60.91 0.99Z"/><path fill="#000000" opacity="1" d="M-41.96-15.20L-41.96-13.67L-46.89-13.67L-46.89-2.16L-42.75-2.16L-42.75-0.66L-46.89-0.66L-46.89 10.84L-41.96 10.84L-41.96 12.38L-48.46 12.38L-48.46-15.20L-41.96-15.20Z"/><path fill="#000000" opacity="1" d="M-24.07 8.44L-24.07 8.44Q-24.07 10.56-24.98 11.67Q-25.89 12.77-27.93 12.77L-27.93 12.77Q-29.98 12.77-30.89 11.67Q-31.80 10.56-31.80 8.44L-31.80 8.44L-31.80 4.50L-30.22 4.50L-30.22 8.44Q-30.22 9.82-29.69 10.55Q-29.16 11.27-27.93 11.27L-27.93 11.27Q-26.71 11.27-26.18 10.55Q-25.65 9.82-25.65 8.44L-25.65 8.44L-25.65 3.71Q-25.65 2.65-25.77 1.98Q-25.89 1.31-26.16 0.87Q-26.44 0.44-26.87 0.14Q-27.30-0.15-27.93-0.51L-27.93-0.51Q-28.84-0.98-29.57-1.37Q-30.30-1.77-30.79-2.36Q-31.28-2.95-31.54-3.91Q-31.80-4.88-31.80-6.53L-31.80-6.53L-31.80-11.30Q-31.80-13.43-30.89-14.51Q-29.98-15.60-27.93-15.60L-27.93-15.60Q-25.89-15.60-24.98-14.51Q-24.07-13.43-24.07-11.30L-24.07-11.30L-24.07-7.32L-25.65-7.32L-25.65-11.30Q-25.65-12.68-26.18-13.39Q-26.71-14.10-27.93-14.10L-27.93-14.10Q-29.16-14.10-29.69-13.39Q-30.22-12.68-30.22-11.30L-30.22-11.30L-30.22-6.53Q-30.22-5.47-30.10-4.80Q-29.98-4.13-29.71-3.70Q-29.43-3.26-29.00-2.97Q-28.56-2.67-27.93-2.32L-27.93-2.32Q-27.03-1.85-26.30-1.45Q-25.57-1.06-25.08-0.47Q-24.59 0.12-24.33 1.09Q-24.07 2.05-24.07 3.71L-24.07 3.71L-24.07 8.44Z"/><path fill="#000000" opacity="1" d="M-5.79 8.44L-5.79 8.44Q-5.79 10.56-6.70 11.67Q-7.60 12.77-9.65 12.77L-9.65 12.77Q-11.70 12.77-12.61 11.67Q-13.51 10.56-13.51 8.44L-13.51 8.44L-13.51 4.50L-11.94 4.50L-11.94 8.44Q-11.94 9.82-11.41 10.55Q-10.87 11.27-9.65 11.27L-9.65 11.27Q-8.43 11.27-7.90 10.55Q-7.37 9.82-7.37 8.44L-7.37 8.44L-7.37 3.71Q-7.37 2.65-7.49 1.98Q-7.60 1.31-7.88 0.87Q-8.16 0.44-8.59 0.14Q-9.02-0.15-9.65-0.51L-9.65-0.51Q-10.56-0.98-11.29-1.37Q-12.02-1.77-12.51-2.36Q-13.00-2.95-13.26-3.91Q-13.51-4.88-13.51-6.53L-13.51-6.53L-13.51-11.30Q-13.51-13.43-12.61-14.51Q-11.70-15.60-9.65-15.60L-9.65-15.60Q-7.60-15.60-6.70-14.51Q-5.79-13.43-5.79-11.30L-5.79-11.30L-5.79-7.32L-7.37-7.32L-7.37-11.30Q-7.37-12.68-7.90-13.39Q-8.43-14.10-9.65-14.10L-9.65-14.10Q-10.87-14.10-11.41-13.39Q-11.94-12.68-11.94-11.30L-11.94-11.30L-11.94-6.53Q-11.94-5.47-11.82-4.80Q-11.70-4.13-11.43-3.70Q-11.15-3.26-10.72-2.97Q-10.28-2.67-9.65-2.32L-9.65-2.32Q-8.75-1.85-8.02-1.45Q-7.29-1.06-6.80-0.47Q-6.30 0.12-6.05 1.09Q-5.79 2.05-5.79 3.71L-5.79 3.71L-5.79 8.44Z"/><path fill="#000000" opacity="1" d=""/><path fill="#000000" opacity="1" d="M26.48 4.50L26.48 8.44Q26.48 10.56 25.55 11.67Q24.62 12.77 22.54 12.77L22.54 12.77Q20.45 12.77 19.52 11.67Q18.60 10.56 18.60 8.44L18.60 8.44L18.60-11.30Q18.60-13.43 19.52-14.51Q20.45-15.60 22.54-15.60L22.54-15.60Q24.62-15.60 25.55-14.51Q26.48-13.43 26.48-11.30L26.48-11.30L26.48-7.32L24.90-7.32L24.90-11.30Q24.90-12.68 24.35-13.39Q23.80-14.10 22.54-14.10L22.54-14.10Q21.28-14.10 20.72-13.39Q20.17-12.68 20.17-11.30L20.17-11.30L20.17 8.44Q20.17 9.82 20.72 10.55Q21.28 11.27 22.54 11.27L22.54 11.27Q23.80 11.27 24.35 10.55Q24.90 9.82 24.90 8.44L24.90 8.44L24.90 4.50L26.48 4.50Z"/><path fill="#000000" opacity="1" d="M43.14-15.20L43.14-13.67L38.22-13.67L38.22-2.16L42.35-2.16L42.35-0.66L38.22-0.66L38.22 10.84L43.14 10.84L43.14 12.38L36.64 12.38L36.64-15.20L43.14-15.20Z"/><path fill="#000000" opacity="1" d="M59.73 0.99L59.73-15.20L61.31-15.20L61.31 12.38L59.73 12.38L54.88-8.98L55.00-3.82L55.00 12.38L53.43 12.38L53.43-15.20L55.00-15.20L59.85 6.15L59.73 0.99Z"/><path fill="#000000" opacity="1" d="M71.08-13.67L71.08-15.20L79.75-15.20L79.75-13.67L76.20-13.67L76.20 12.38L74.62 12.38L74.62-13.67L71.08-13.67Z"/><path fill="#000000" opacity="1" d="M89.52 12.38L89.52-15.20L93.26-15.20Q95.35-15.20 96.27-14.00Q97.20-12.80 97.20-10.51L97.20-10.51L97.20-3.86Q97.20-1.93 96.55-0.76Q95.90 0.40 94.48 0.75L94.48 0.75L97.95 12.38L96.33 12.38L92.87 0.87L91.09 0.87L91.09 12.38L89.52 12.38ZM93.26-13.71L91.09-13.71L91.09-0.62L93.26-0.62Q94.52-0.62 95.07-1.47Q95.62-2.32 95.62-3.86L95.62-3.86L95.62-10.51Q95.62-12.05 95.07-12.88Q94.52-13.71 93.26-13.71L93.26-13.71Z"/><path fill="#000000" opacity="1" d="M114.46-15.20L114.46-13.67L109.53-13.67L109.53-2.16L113.67-2.16L113.67-0.66L109.53-0.66L109.53 10.84L114.46 10.84L114.46 12.38L107.96 12.38L107.96-15.20L114.46-15.20Z"/></g><g transform="matrix(0.9371425692059528 0 0 0.9371425692059528 250.00000000000003 239.07856475321577)"  >
<g style=""   >
		<g transform="matrix(1 0 0 1 -11.417 0.5010000000000021)"  >
<path style="stroke: none; stroke-width: 1; stroke-dasharray: none; stroke-linecap: butt; stroke-dashoffset: 0; stroke-linejoin: miter; stroke-miterlimit: 4; fill: rgb(255,255,255); fill-rule: nonzero; opacity: 1;"  transform=" translate(-4.583, -16.501)" d="M 6.119 20.787 c 0 0.395 -0.317 0.713 -0.714 0.713 H 3.762 c -0.397 0 -0.715 -0.318 -0.715 -0.713 v -8.572 c 0 -0.393 0.317 -0.713 0.715 -0.713 h 1.643 c 0.396 0 0.714 0.32 0.714 0.713 V 20.787 z" stroke-linecap="round" />
</g>
		<g transform="matrix(1 0 0 1 -7.233499999999999 0.4999999999999991)"  >
<path style="stroke: none; stroke-width: 1; stroke-dasharray: none; stroke-linecap: butt; stroke-dashoffset: 0; stroke-linejoin: miter; stroke-miterlimit: 4; fill: rgb(255,255,255); fill-rule: nonzero; opacity: 1;"  transform=" translate(-8.7665, -16.5)" d="M 10.917 22.5 c 0 0.553 -0.449 0.998 -0.999 0.998 H 7.617 c -0.552 0 -1.002 -0.445 -1.002 -0.998 v -12 c 0 -0.551 0.45 -0.998 1.002 -0.998 h 2.302 c 0.55 0 0.999 0.447 0.999 0.998 V 22.5 z" stroke-linecap="round" />
</g>
		<g transform="matrix(1 0 0 1 -14.441 0.5)"  >
<path style="stroke: none; stroke-width: 1; stroke-dasharray: none; stroke-linecap: butt; stroke-dashoffset: 0; stroke-linejoin: miter; stroke-miterlimit: 4; fill: rgb(255,255,255); fill-rule: nonzero; opacity: 1;"  transform=" translate(-1.5590000000000002, -16.5)" d="M 2.619 17.35 c 0 0.443 -0.357 0.801 -0.802 0.801 H 1.3 c -0.442 0 -0.801 -0.357 -0.801 -0.801 V 15.65 c 0 -0.441 0.358 -0.801 0.801 -0.801 h 0.517 c 0.444 0 0.802 0.359 0.802 0.801 V 17.35 z" stroke-linecap="round" />
</g>
		<g transform="matrix(1 0 0 1 12.4175 0.5010000000000021)"  >
<path style="stroke: none; stroke-width: 1; stroke-dasharray: none; stroke-linecap: butt; stroke-dashoffset: 0; stroke-linejoin: miter; stroke-miterlimit: 4; fill: rgb(255,255,255); fill-rule: nonzero; opacity: 1;"  transform=" translate(-28.4175, -16.501)" d="M 26.881 20.787 c 0 0.395 0.318 0.713 0.713 0.713 h 1.645 c 0.395 0 0.715 -0.318 0.715 -0.713 v -8.572 c 0 -0.393 -0.32 -0.713 -0.715 -0.713 h -1.645 c -0.395 0 -0.713 0.32 -0.713 0.713 V 20.787 z" stroke-linecap="round" />
</g>
		<g transform="matrix(1 0 0 1 8.232500000000002 0.4999999999999991)"  >
<path style="stroke: none; stroke-width: 1; stroke-dasharray: none; stroke-linecap: butt; stroke-dashoffset: 0; stroke-linejoin: miter; stroke-miterlimit: 4; fill: rgb(255,255,255); fill-rule: nonzero; opacity: 1;"  transform=" translate(-24.2325, -16.5)" d="M 22.082 22.5 c 0 0.553 0.449 0.998 1 0.998 h 2.303 c 0.551 0 0.998 -0.445 0.998 -0.998 v -12 c 0 -0.551 -0.447 -0.998 -0.998 -0.998 h -2.303 c -0.551 0 -1 0.447 -1 0.998 V 22.5 z" stroke-linecap="round" />
</g>
		<g transform="matrix(1 0 0 1 15.440999999999999 0.5)"  >
<path style="stroke: none; stroke-width: 1; stroke-dasharray: none; stroke-linecap: butt; stroke-dashoffset: 0; stroke-linejoin: miter; stroke-miterlimit: 4; fill: rgb(255,255,255); fill-rule: nonzero; opacity: 1;"  transform=" translate(-31.441, -16.5)" d="M 30.381 17.35 c 0 0.443 0.357 0.801 0.801 0.801 h 0.518 c 0.443 0 0.801 -0.357 0.801 -0.801 V 15.65 c 0 -0.441 -0.357 -0.801 -0.801 -0.801 h -0.518 c -0.443 0 -0.801 0.359 -0.801 0.801 V 17.35 z" stroke-linecap="round" />
</g>
		<g transform="matrix(1 0 0 1 0.4999999999999991 0.5010000000000019)"  >
<rect style="stroke: none; stroke-width: 1; stroke-dasharray: none; stroke-linecap: butt; stroke-dashoffset: 0; stroke-linejoin: miter; stroke-miterlimit: 4; fill: rgb(255,255,255); fill-rule: nonzero; opacity: 1;"  x="-4.611" y="-0.825" rx="0" ry="0" width="9.222" height="1.65" />
</g>
</g>
</g>
<g transform="matrix(0.9371425692059528 0 0 0.9371425692059528 250.00000000000003 151.6595864787823)"  >
<g style=""   >
		<g transform="matrix(1 0 0 1 -11.417 0.5010000000000021)"  >
<path style="stroke: none; stroke-width: 1; stroke-dasharray: none; stroke-linecap: butt; stroke-dashoffset: 0; stroke-linejoin: miter; stroke-miterlimit: 4; fill: rgb(255,255,255); fill-rule: nonzero; opacity: 1;"  transform=" translate(-4.583, -16.501)" d="M 6.119 20.787 c 0 0.395 -0.317 0.713 -0.714 0.713 H 3.762 c -0.397 0 -0.715 -0.318 -0.715 -0.713 v -8.572 c 0 -0.393 0.317 -0.713 0.715 -0.713 h 1.643 c 0.396 0 0.714 0.32 0.714 0.713 V 20.787 z" stroke-linecap="round" />
</g>
		<g transform="matrix(1 0 0 1 -7.233499999999999 0.4999999999999991)"  >
<path style="stroke: none; stroke-width: 1; stroke-dasharray: none; stroke-linecap: butt; stroke-dashoffset: 0; stroke-linejoin: miter; stroke-miterlimit: 4; fill: rgb(255,255,255); fill-rule: nonzero; opacity: 1;"  transform=" translate(-8.7665, -16.5)" d="M 10.917 22.5 c 0 0.553 -0.449 0.998 -0.999 0.998 H 7.617 c -0.552 0 -1.002 -0.445 -1.002 -0.998 v -12 c 0 -0.551 0.45 -0.998 1.002 -0.998 h 2.302 c 0.55 0 0.999 0.447 0.999 0.998 V 22.5 z" stroke-linecap="round" />
</g>
		<g transform="matrix(1 0 0 1 -14.441 0.5)"  >
<path style="stroke: none; stroke-width: 1; stroke-dasharray: none; stroke-linecap: butt; stroke-dashoffset: 0; stroke-linejoin: miter; stroke-miterlimit: 4; fill: rgb(255,255,255); fill-rule: nonzero; opacity: 1;"  transform=" translate(-1.5590000000000002, -16.5)" d="M 2.619 17.35 c 0 0.443 -0.357 0.801 -0.802 0.801 H 1.3 c -0.442 0 -0.801 -0.357 -0.801 -0.801 V 15.65 c 0 -0.441 0.358 -0.801 0.801 -0.801 h 0.517 c 0.444 0 0.802 0.359 0.802 0.801 V 17.35 z" stroke-linecap="round" />
</g>
		<g transform="matrix(1 0 0 1 12.4175 0.5010000000000021)"  >
<path style="stroke: none; stroke-width: 1; stroke-dasharray: none; stroke-linecap: butt; stroke-dashoffset: 0; stroke-linejoin: miter; stroke-miterlimit: 4; fill: rgb(255,255,255); fill-rule: nonzero; opacity: 1;"  transform=" translate(-28.4175, -16.501)" d="M 26.881 20.787 c 0 0.395 0.318 0.713 0.713 0.713 h 1.645 c 0.395 0 0.715 -0.318 0.715 -0.713 v -8.572 c 0 -0.393 -0.32 -0.713 -0.715 -0.713 h -1.645 c -0.395 0 -0.713 0.32 -0.713 0.713 V 20.787 z" stroke-linecap="round" />
</g>
		<g transform="matrix(1 0 0 1 8.232500000000002 0.4999999999999991)"  >
<path style="stroke: none; stroke-width: 1; stroke-dasharray: none; stroke-linecap: butt; stroke-dashoffset: 0; stroke-linejoin: miter; stroke-miterlimit: 4; fill: rgb(255,255,255); fill-rule: nonzero; opacity: 1;"  transform=" translate(-24.2325, -16.5)" d="M 22.082 22.5 c 0 0.553 0.449 0.998 1 0.998 h 2.303 c 0.551 0 0.998 -0.445 0.998 -0.998 v -12 c 0 -0.551 -0.447 -0.998 -0.998 -0.998 h -2.303 c -0.551 0 -1 0.447 -1 0.998 V 22.5 z" stroke-linecap="round" />
</g>
		<g transform="matrix(1 0 0 1 15.440999999999999 0.5)"  >
<path style="stroke: none; stroke-width: 1; stroke-dasharray: none; stroke-linecap: butt; stroke-dashoffset: 0; stroke-linejoin: miter; stroke-miterlimit: 4; fill: rgb(255,255,255); fill-rule: nonzero; opacity: 1;"  transform=" translate(-31.441, -16.5)" d="M 30.381 17.35 c 0 0.443 0.357 0.801 0.801 0.801 h 0.518 c 0.443 0 0.801 -0.357 0.801 -0.801 V 15.65 c 0 -0.441 -0.357 -0.801 -0.801 -0.801 h -0.518 c -0.443 0 -0.801 0.359 -0.801 0.801 V 17.35 z" stroke-linecap="round" />
</g>
		<g transform="matrix(1 0 0 1 0.4999999999999991 0.5010000000000019)"  >
<rect style="stroke: none; stroke-width: 1; stroke-dasharray: none; stroke-linecap: butt; stroke-dashoffset: 0; stroke-linejoin: miter; stroke-miterlimit: 4; fill: rgb(255,255,255); fill-rule: nonzero; opacity: 1;"  x="-4.611" y="-0.825" rx="0" ry="0" width="9.222" height="1.65" />
</g>
</g>
</g>
</svg>